<svg width="264" height="264" viewBox="12 12 240 240"  fill="none" xmlns="http://www.w3.org/2000/svg">
<g filter="url(#filter0_dii)">
<path d="M245.834 138.149C249.143 138.328 251.986 135.79 251.999 132.476C252.079 112.469 247.153 92.7248 237.629 75.0578C228.106 57.3907 214.319 42.4235 197.561 31.4928C194.786 29.6824 191.103 30.6621 189.433 33.5245L177.342 54.2562C175.673 57.1187 176.654 60.775 179.39 62.6445C190.445 70.1982 199.56 80.3037 205.941 92.1404C212.322 103.977 215.754 117.146 215.987 130.533C216.045 133.847 218.56 136.676 221.869 136.855L245.834 138.149Z" fill="url(#paint0_radial)" fill-opacity="0.5"/>
</g>
<g filter="url(#filter1_dii)">
<path d="M74.3506 33.6509C72.6748 30.7921 68.9895 29.8205 66.218 31.637C50.1658 42.1581 36.8452 56.3946 27.4079 73.174C16.9887 91.6994 11.6767 112.66 12.0152 133.911C12.3538 155.163 18.3308 175.944 29.3349 194.128C39.3019 210.598 53.0691 224.403 69.4484 234.408C72.2763 236.135 75.9288 235.046 77.5126 232.136L88.9837 211.054C90.5675 208.144 89.4781 204.518 86.6878 202.731C75.8924 195.815 66.7995 186.504 60.1344 175.49C52.4315 162.761 48.2477 148.214 48.0107 133.338C47.7737 118.462 51.4921 103.79 58.7856 90.8218C65.0965 79.6011 73.8881 70.0049 84.4578 62.7487C87.1897 60.8733 88.163 57.2148 86.4873 54.356L74.3506 33.6509Z" fill="url(#paint1_radial)" fill-opacity="0.5"/>
</g>
<g filter="url(#filter2_dii)">
<path d="M79.8948 233.396C78.3802 236.343 79.5362 239.975 82.5555 241.34C98.7689 248.672 116.435 252.317 134.276 251.978C154.12 251.602 173.56 246.31 190.856 236.575C208.152 226.841 222.764 212.968 233.382 196.201C242.929 181.125 248.979 164.132 251.125 146.468C251.524 143.178 249.019 140.305 245.714 140.071L221.774 138.372C218.469 138.137 215.621 140.632 215.151 143.912C213.472 155.636 209.328 166.896 202.967 176.94C195.535 188.678 185.306 198.389 173.199 205.203C161.092 212.017 147.484 215.721 133.593 215.985C121.706 216.21 109.931 213.91 99.0368 209.262C95.9889 207.962 92.3789 209.102 90.8643 212.049L79.8948 233.396Z" fill="url(#paint2_radial)" fill-opacity="0.5"/>
</g>
<g filter="url(#filter3_dii)">
<path d="M187.504 32.4242C189.117 29.5297 188.085 25.8609 185.113 24.3942C168.571 16.2289 150.342 11.9754 131.84 12.0001C113.338 12.0248 95.1203 16.327 78.5996 24.5365C75.6321 26.0111 74.6095 29.6827 76.2305 32.5728L87.9715 53.5049C89.5926 56.395 93.2418 57.4025 96.2402 55.9918C107.37 50.7554 119.539 48.0166 131.888 48.0001C144.237 47.9836 156.413 50.6899 167.557 55.8966C170.559 57.2992 174.205 56.2819 175.819 53.3875L187.504 32.4242Z" fill="url(#paint3_radial)" fill-opacity="0.8"/>
</g>
<defs>
<filter id="filter0_dii" x="164.523" y="18.578" width="99.477" height="131.58" filterUnits="userSpaceOnUse" color-interpolation-filters="sRGB">
<feFlood flood-opacity="0" result="BackgroundImageFix"/>
<feColorMatrix in="SourceAlpha" type="matrix" values="0 0 0 0 0 0 0 0 0 0 0 0 0 0 0 0 0 0 127 0"/>
<feMorphology radius="8" operator="erode" in="SourceAlpha" result="effect1_dropShadow"/>
<feOffset/>
<feGaussianBlur stdDeviation="10"/>
<feColorMatrix type="matrix" values="0 0 0 0 0.575 0 0 0 0 0.365803 0 0 0 0 0 0 0 0 0.2 0"/>
<feBlend mode="normal" in2="BackgroundImageFix" result="effect1_dropShadow"/>
<feBlend mode="normal" in="SourceGraphic" in2="effect1_dropShadow" result="shape"/>
<feColorMatrix in="SourceAlpha" type="matrix" values="0 0 0 0 0 0 0 0 0 0 0 0 0 0 0 0 0 0 127 0" result="hardAlpha"/>
<feOffset/>
<feGaussianBlur stdDeviation="10"/>
<feComposite in2="hardAlpha" operator="arithmetic" k2="-1" k3="1"/>
<feColorMatrix type="matrix" values="0 0 0 0 0.791667 0 0 0 0 0.504028 0 0 0 0 0 0 0 0 0.9 0"/>
<feBlend mode="normal" in2="shape" result="effect2_innerShadow"/>
<feColorMatrix in="SourceAlpha" type="matrix" values="0 0 0 0 0 0 0 0 0 0 0 0 0 0 0 0 0 0 127 0" result="hardAlpha"/>
<feOffset dx="-1" dy="1"/>
<feGaussianBlur stdDeviation="0.5"/>
<feComposite in2="hardAlpha" operator="arithmetic" k2="-1" k3="1"/>
<feColorMatrix type="matrix" values="0 0 0 0 1 0 0 0 0 1 0 0 0 0 1 0 0 0 0.5 0"/>
<feBlend mode="normal" in2="effect2_innerShadow" result="effect3_innerShadow"/>
</filter>
<filter id="filter1_dii" x="0" y="18.7155" width="101.715" height="228.518" filterUnits="userSpaceOnUse" color-interpolation-filters="sRGB">
<feFlood flood-opacity="0" result="BackgroundImageFix"/>
<feColorMatrix in="SourceAlpha" type="matrix" values="0 0 0 0 0 0 0 0 0 0 0 0 0 0 0 0 0 0 127 0"/>
<feMorphology radius="8" operator="erode" in="SourceAlpha" result="effect1_dropShadow"/>
<feOffset/>
<feGaussianBlur stdDeviation="10"/>
<feColorMatrix type="matrix" values="0 0 0 0 0.375 0 0 0 0 0.375 0 0 0 0 0.375 0 0 0 0.2 0"/>
<feBlend mode="normal" in2="BackgroundImageFix" result="effect1_dropShadow"/>
<feBlend mode="normal" in="SourceGraphic" in2="effect1_dropShadow" result="shape"/>
<feColorMatrix in="SourceAlpha" type="matrix" values="0 0 0 0 0 0 0 0 0 0 0 0 0 0 0 0 0 0 127 0" result="hardAlpha"/>
<feOffset/>
<feGaussianBlur stdDeviation="10"/>
<feComposite in2="hardAlpha" operator="arithmetic" k2="-1" k3="1"/>
<feColorMatrix type="matrix" values="0 0 0 0 0.15 0 0 0 0 0.15 0 0 0 0 0.15 0 0 0 0.9 0"/>
<feBlend mode="normal" in2="shape" result="effect2_innerShadow"/>
<feColorMatrix in="SourceAlpha" type="matrix" values="0 0 0 0 0 0 0 0 0 0 0 0 0 0 0 0 0 0 127 0" result="hardAlpha"/>
<feOffset dx="-1" dy="1"/>
<feGaussianBlur stdDeviation="0.5"/>
<feComposite in2="hardAlpha" operator="arithmetic" k2="-1" k3="1"/>
<feColorMatrix type="matrix" values="0 0 0 0 1 0 0 0 0 1 0 0 0 0 1 0 0 0 0.5 0"/>
<feBlend mode="normal" in2="effect2_innerShadow" result="effect3_innerShadow"/>
</filter>
<filter id="filter2_dii" x="67.2308" y="126.356" width="195.936" height="137.644" filterUnits="userSpaceOnUse" color-interpolation-filters="sRGB">
<feFlood flood-opacity="0" result="BackgroundImageFix"/>
<feColorMatrix in="SourceAlpha" type="matrix" values="0 0 0 0 0 0 0 0 0 0 0 0 0 0 0 0 0 0 127 0"/>
<feMorphology radius="8" operator="erode" in="SourceAlpha" result="effect1_dropShadow"/>
<feOffset/>
<feGaussianBlur stdDeviation="10"/>
<feColorMatrix type="matrix" values="0 0 0 0 0 0 0 0 0 0 0 0 0 0 0 0 0 0 0.2 0"/>
<feBlend mode="normal" in2="BackgroundImageFix" result="effect1_dropShadow"/>
<feBlend mode="normal" in="SourceGraphic" in2="effect1_dropShadow" result="shape"/>
<feColorMatrix in="SourceAlpha" type="matrix" values="0 0 0 0 0 0 0 0 0 0 0 0 0 0 0 0 0 0 127 0" result="hardAlpha"/>
<feOffset/>
<feGaussianBlur stdDeviation="10"/>
<feComposite in2="hardAlpha" operator="arithmetic" k2="-1" k3="1"/>
<feColorMatrix type="matrix" values="0 0 0 0 0.545833 0 0 0 0 0.545833 0 0 0 0 0.545833 0 0 0 0.9 0"/>
<feBlend mode="normal" in2="shape" result="effect2_innerShadow"/>
<feColorMatrix in="SourceAlpha" type="matrix" values="0 0 0 0 0 0 0 0 0 0 0 0 0 0 0 0 0 0 127 0" result="hardAlpha"/>
<feOffset dx="-1" dy="1"/>
<feGaussianBlur stdDeviation="0.5"/>
<feComposite in2="hardAlpha" operator="arithmetic" k2="-1" k3="1"/>
<feColorMatrix type="matrix" values="0 0 0 0 1 0 0 0 0 1 0 0 0 0 1 0 0 0 0.5 0"/>
<feBlend mode="normal" in2="effect2_innerShadow" result="effect3_innerShadow"/>
</filter>
<filter id="filter3_dii" x="63.4636" y="0" width="136.799" height="68.623" filterUnits="userSpaceOnUse" color-interpolation-filters="sRGB">
<feFlood flood-opacity="0" result="BackgroundImageFix"/>
<feColorMatrix in="SourceAlpha" type="matrix" values="0 0 0 0 0 0 0 0 0 0 0 0 0 0 0 0 0 0 127 0"/>
<feMorphology radius="8" operator="erode" in="SourceAlpha" result="effect1_dropShadow"/>
<feOffset/>
<feGaussianBlur stdDeviation="10"/>
<feColorMatrix type="matrix" values="0 0 0 0 0.972549 0 0 0 0 0.618715 0 0 0 0 0 0 0 0 0.2 0"/>
<feBlend mode="normal" in2="BackgroundImageFix" result="effect1_dropShadow"/>
<feBlend mode="normal" in="SourceGraphic" in2="effect1_dropShadow" result="shape"/>
<feColorMatrix in="SourceAlpha" type="matrix" values="0 0 0 0 0 0 0 0 0 0 0 0 0 0 0 0 0 0 127 0" result="hardAlpha"/>
<feOffset/>
<feGaussianBlur stdDeviation="10"/>
<feComposite in2="hardAlpha" operator="arithmetic" k2="-1" k3="1"/>
<feColorMatrix type="matrix" values="0 0 0 0 1 0 0 0 0 0.636666 0 0 0 0 0 0 0 0 0.9 0"/>
<feBlend mode="normal" in2="shape" result="effect2_innerShadow"/>
<feColorMatrix in="SourceAlpha" type="matrix" values="0 0 0 0 0 0 0 0 0 0 0 0 0 0 0 0 0 0 127 0" result="hardAlpha"/>
<feOffset dx="-1" dy="1"/>
<feGaussianBlur stdDeviation="0.5"/>
<feComposite in2="hardAlpha" operator="arithmetic" k2="-1" k3="1"/>
<feColorMatrix type="matrix" values="0 0 0 0 1 0 0 0 0 1 0 0 0 0 1 0 0 0 0.5 0"/>
<feBlend mode="normal" in2="effect2_innerShadow" result="effect3_innerShadow"/>
</filter>
<radialGradient id="paint0_radial" cx="0" cy="0" r="1" gradientUnits="userSpaceOnUse" gradientTransform="translate(131.624 132.376) rotate(90) scale(119.624)">
<stop offset="0.729167" stop-color="#633F00"/>
<stop offset="1" stop-color="#0F0900"/>
</radialGradient>
<radialGradient id="paint1_radial" cx="0" cy="0" r="1" gradientUnits="userSpaceOnUse" gradientTransform="translate(131.624 132.376) rotate(90) scale(119.624)">
<stop offset="0.71875" stop-color="#4D4D4D"/>
<stop offset="1" stop-color="#382900"/>
</radialGradient>
<radialGradient id="paint2_radial" cx="0" cy="0" r="1" gradientUnits="userSpaceOnUse" gradientTransform="translate(131.624 132.376) rotate(90) scale(119.624)">
<stop offset="0.71875" stop-color="#9B9B9B"/>
<stop offset="1" stop-color="#382900"/>
</radialGradient>
<radialGradient id="paint3_radial" cx="0" cy="0" r="1" gradientUnits="userSpaceOnUse" gradientTransform="translate(131.624 132.376) rotate(90) scale(119.624)">
<stop offset="0.71875" stop-color="#FFA300"/>
<stop offset="1" stop-color="#5B3A00"/>
</radialGradient>
</defs>
</svg>
