<svg width="44" height="45" viewBox="0 0 44 45" fill="none" xmlns="http://www.w3.org/2000/svg">
<mask id="mask0" mask-type="alpha" maskUnits="userSpaceOnUse" x="0" y="2" width="44" height="42">
<path opacity="0.92" d="M0 20.0366C0 18.4341 0.746713 16.923 2.01971 15.9495L18.7413 3.16247C20.5861 1.75173 23.1473 1.75173 24.9921 3.16247L41.7136 15.9495C42.9866 16.923 43.7333 18.4341 43.7333 20.0366V25.2417C43.7333 26.8442 42.9866 28.3552 41.7136 29.3287L24.9921 42.1158C23.1473 43.5265 20.5861 43.5265 18.7413 42.1158L2.01971 29.3287C0.746714 28.3552 0 26.8442 0 25.2417V20.0366Z" fill="#2B1F00"/>
</mask>
<g mask="url(#mask0)">
<g filter="url(#filter0_ii)">
<path d="M0 18.7653C0 17.964 0.373357 17.2085 1.00985 16.7218L20.304 1.96746C21.2264 1.2621 22.507 1.2621 23.4294 1.96746L42.7235 16.7218C43.36 17.2085 43.7333 17.964 43.7333 18.7653V26.5129C43.7333 27.3142 43.36 28.0697 42.7235 28.5565L23.4294 43.3108C22.507 44.0162 21.2264 44.0162 20.304 43.3108L1.00986 28.5565C0.373358 28.0697 0 27.3142 0 26.5129V18.7653Z" fill="url(#paint0_radial)" fill-opacity="0.8"/>
</g>
<g filter="url(#filter1_if)">
<path d="M43.7333 26.5129V22.6998C43.7333 20.5688 41.2908 19.3618 39.5981 20.6563L22.8765 33.4433C22.24 33.9301 21.8666 34.6856 21.8666 35.4869V44.5058L42.7235 28.5565C43.3599 28.0697 43.7333 27.3142 43.7333 26.5129Z" fill="url(#paint1_radial)" fill-opacity="0.8"/>
</g>
<g filter="url(#filter2_iif)">
<path d="M21.8667 0.772461L0 17.494L18.7413 31.8256C20.5861 33.2363 23.1473 33.2363 24.9921 31.8256L43.7333 17.494L21.8667 0.772461Z" fill="url(#paint2_radial)" fill-opacity="0.9"/>
</g>
</g>
<defs>
<filter id="filter0_ii" x="-1.28627" y="1.43845" width="46.3059" height="43.6877" filterUnits="userSpaceOnUse" color-interpolation-filters="sRGB">
<feFlood flood-opacity="0" result="BackgroundImageFix"/>
<feBlend mode="normal" in="SourceGraphic" in2="BackgroundImageFix" result="shape"/>
<feColorMatrix in="SourceAlpha" type="matrix" values="0 0 0 0 0 0 0 0 0 0 0 0 0 0 0 0 0 0 127 0" result="hardAlpha"/>
<feOffset dx="1.28627" dy="1.28627"/>
<feGaussianBlur stdDeviation="10.2902"/>
<feComposite in2="hardAlpha" operator="arithmetic" k2="-1" k3="1"/>
<feColorMatrix type="matrix" values="0 0 0 0 0.414167 0 0 0 0 0.414167 0 0 0 0 0.414167 0 0 0 0.2 0"/>
<feBlend mode="normal" in2="shape" result="effect1_innerShadow"/>
<feColorMatrix in="SourceAlpha" type="matrix" values="0 0 0 0 0 0 0 0 0 0 0 0 0 0 0 0 0 0 127 0" result="hardAlpha"/>
<feOffset dx="-1.28627"/>
<feGaussianBlur stdDeviation="1.28627"/>
<feComposite in2="hardAlpha" operator="arithmetic" k2="-1" k3="1"/>
<feColorMatrix type="matrix" values="0 0 0 0 0.98 0 0 0 0 0.98 0 0 0 0 0.98 0 0 0 0.2 0"/>
<feBlend mode="normal" in2="effect1_innerShadow" result="effect2_innerShadow"/>
</filter>
<filter id="filter1_if" x="19.2941" y="17.55" width="27.0118" height="29.5284" filterUnits="userSpaceOnUse" color-interpolation-filters="sRGB">
<feFlood flood-opacity="0" result="BackgroundImageFix"/>
<feBlend mode="normal" in="SourceGraphic" in2="BackgroundImageFix" result="shape"/>
<feColorMatrix in="SourceAlpha" type="matrix" values="0 0 0 0 0 0 0 0 0 0 0 0 0 0 0 0 0 0 127 0" result="hardAlpha"/>
<feOffset dx="-1.28627" dy="1.28627"/>
<feGaussianBlur stdDeviation="0.643137"/>
<feComposite in2="hardAlpha" operator="arithmetic" k2="-1" k3="1"/>
<feColorMatrix type="matrix" values="0 0 0 0 0.98 0 0 0 0 0.98 0 0 0 0 0.98 0 0 0 0.5 0"/>
<feBlend mode="normal" in2="shape" result="effect1_innerShadow"/>
<feGaussianBlur stdDeviation="1.28627" result="effect2_foregroundBlur"/>
</filter>
<filter id="filter2_iif" x="-1.28627" y="-0.513814" width="47.5922" height="35.97" filterUnits="userSpaceOnUse" color-interpolation-filters="sRGB">
<feFlood flood-opacity="0" result="BackgroundImageFix"/>
<feBlend mode="normal" in="SourceGraphic" in2="BackgroundImageFix" result="shape"/>
<feColorMatrix in="SourceAlpha" type="matrix" values="0 0 0 0 0 0 0 0 0 0 0 0 0 0 0 0 0 0 127 0" result="hardAlpha"/>
<feOffset dx="2.57255" dy="2.57255"/>
<feGaussianBlur stdDeviation="12.8627"/>
<feComposite in2="hardAlpha" operator="arithmetic" k2="-1" k3="1"/>
<feColorMatrix type="matrix" values="0 0 0 0 0.643333 0 0 0 0 0.643333 0 0 0 0 0.643333 0 0 0 0.2 0"/>
<feBlend mode="normal" in2="shape" result="effect1_innerShadow"/>
<feColorMatrix in="SourceAlpha" type="matrix" values="0 0 0 0 0 0 0 0 0 0 0 0 0 0 0 0 0 0 127 0" result="hardAlpha"/>
<feOffset dx="-2.57255"/>
<feGaussianBlur stdDeviation="0.643137"/>
<feComposite in2="hardAlpha" operator="arithmetic" k2="-1" k3="1"/>
<feColorMatrix type="matrix" values="0 0 0 0 0.98 0 0 0 0 0.98 0 0 0 0 0.98 0 0 0 0.8 0"/>
<feBlend mode="normal" in2="effect1_innerShadow" result="effect2_innerShadow"/>
<feGaussianBlur stdDeviation="0.643137" result="effect3_foregroundBlur"/>
</filter>
<radialGradient id="paint0_radial" cx="0" cy="0" r="1" gradientUnits="userSpaceOnUse" gradientTransform="translate(38.9507 35.0086) rotate(-161.19) scale(66.2871 1469.97)">
<stop stop-color="#FAFAFA"/>
<stop offset="1" stop-color="#FAFAFA"/>
</radialGradient>
<radialGradient id="paint1_radial" cx="0" cy="0" r="1" gradientUnits="userSpaceOnUse" gradientTransform="translate(40.5176 28.4274) rotate(-173.454) scale(39.4888 63.5928)">
<stop stop-color="#EAEAEA"/>
<stop offset="0.0001" stop-color="#E9E9E9"/>
<stop offset="1" stop-color="#E4E4E4"/>
</radialGradient>
<radialGradient id="paint2_radial" cx="0" cy="0" r="1" gradientUnits="userSpaceOnUse" gradientTransform="translate(45.6627 20.0666) rotate(-165.964) scale(42.4276 24.7298)">
<stop stop-color="#FAFAFA"/>
<stop offset="1" stop-color="#F8F8F8"/>
</radialGradient>
</defs>
</svg>
