<svg width="45" height="75" viewBox="0 0 45 75" fill="none" xmlns="http://www.w3.org/2000/svg">
<mask id="mask0" mask-type="alpha" maskUnits="userSpaceOnUse" x="0" y="0" width="45" height="73">
<path opacity="0.92" d="M0.333252 18.8877C0.333252 17.2851 1.07997 15.7741 2.35296 14.8006L19.0745 2.01354C20.9193 0.602808 23.4805 0.602808 25.3253 2.01354L42.0469 14.8006C43.3199 15.7741 44.0666 17.2851 44.0666 18.8877V54.9633C44.0666 56.5659 43.3199 58.0769 42.0469 59.0504L25.3253 71.8375C23.4805 73.2482 20.9193 73.2482 19.0745 71.8375L2.35296 59.0504C1.07997 58.0769 0.333252 56.5659 0.333252 54.9633V18.8877Z" fill="#FF8080"/>
</mask>
<g mask="url(#mask0)">
<g filter="url(#filter0_ii)">
<path d="M0.333252 18.8877C0.333252 17.2851 1.07997 15.7741 2.35296 14.8006L19.0745 2.01354C20.9193 0.602808 23.4805 0.602808 25.3253 2.01354L42.0469 14.8006C43.3199 15.7741 44.0666 17.2851 44.0666 18.8877V54.9633C44.0666 56.5659 43.3199 58.0769 42.0469 59.0504L25.3253 71.8375C23.4805 73.2482 20.9193 73.2482 19.0745 71.8375L2.35296 59.0504C1.07997 58.0769 0.333252 56.5659 0.333252 54.9633V18.8877Z" fill="url(#paint0_radial)"/>
</g>
<g filter="url(#filter1_iif)">
<path d="M44.0666 54.9633V18.8877C44.0666 17.2851 43.3198 15.7741 42.0468 14.8006L30.4704 5.94803C27.0848 3.35909 22.1999 5.7731 22.1999 10.0351V74.2275L42.0469 59.0504C43.3198 58.0769 44.0666 56.5659 44.0666 54.9633Z" fill="url(#paint1_radial)" fill-opacity="0.8"/>
</g>
<g filter="url(#filter2_iif)">
<path d="M19.0745 2.01354L0.333252 16.3451L19.0745 30.6767C20.9193 32.0874 23.4805 32.0874 25.3253 30.6767L44.0666 16.3451L25.3253 2.01354C23.4805 0.602807 20.9193 0.602808 19.0745 2.01354Z" fill="url(#paint2_radial)" fill-opacity="0.8"/>
</g>
</g>
<defs>
<filter id="filter0_ii" x="-0.953023" y="0.955505" width="45.0196" height="73.2263" filterUnits="userSpaceOnUse" color-interpolation-filters="sRGB">
<feFlood flood-opacity="0" result="BackgroundImageFix"/>
<feBlend mode="normal" in="SourceGraphic" in2="BackgroundImageFix" result="shape"/>
<feColorMatrix in="SourceAlpha" type="matrix" values="0 0 0 0 0 0 0 0 0 0 0 0 0 0 0 0 0 0 127 0" result="hardAlpha"/>
<feOffset/>
<feGaussianBlur stdDeviation="12.8627"/>
<feComposite in2="hardAlpha" operator="arithmetic" k2="-1" k3="1"/>
<feColorMatrix type="matrix" values="0 0 0 0 1 0 0 0 0 0.69 0 0 0 0 0.225 0 0 0 0.4 0"/>
<feBlend mode="normal" in2="shape" result="effect1_innerShadow"/>
<feColorMatrix in="SourceAlpha" type="matrix" values="0 0 0 0 0 0 0 0 0 0 0 0 0 0 0 0 0 0 127 0" result="hardAlpha"/>
<feOffset dx="-1.28627" dy="1.28627"/>
<feGaussianBlur stdDeviation="0.643137"/>
<feComposite in2="hardAlpha" operator="arithmetic" k2="-1" k3="1"/>
<feColorMatrix type="matrix" values="0 0 0 0 1 0 0 0 0 1 0 0 0 0 1 0 0 0 0.5 0"/>
<feBlend mode="normal" in2="effect1_innerShadow" result="effect2_innerShadow"/>
</filter>
<filter id="filter1_iif" x="19.6273" y="2.30797" width="27.0118" height="74.492" filterUnits="userSpaceOnUse" color-interpolation-filters="sRGB">
<feFlood flood-opacity="0" result="BackgroundImageFix"/>
<feBlend mode="normal" in="SourceGraphic" in2="BackgroundImageFix" result="shape"/>
<feColorMatrix in="SourceAlpha" type="matrix" values="0 0 0 0 0 0 0 0 0 0 0 0 0 0 0 0 0 0 127 0" result="hardAlpha"/>
<feOffset/>
<feGaussianBlur stdDeviation="12.8627"/>
<feComposite in2="hardAlpha" operator="arithmetic" k2="-1" k3="1"/>
<feColorMatrix type="matrix" values="0 0 0 0 1 0 0 0 0 0.69 0 0 0 0 0.225 0 0 0 0.4 0"/>
<feBlend mode="normal" in2="shape" result="effect1_innerShadow"/>
<feColorMatrix in="SourceAlpha" type="matrix" values="0 0 0 0 0 0 0 0 0 0 0 0 0 0 0 0 0 0 127 0" result="hardAlpha"/>
<feOffset dx="-1.28627" dy="1.28627"/>
<feGaussianBlur stdDeviation="0.643137"/>
<feComposite in2="hardAlpha" operator="arithmetic" k2="-1" k3="1"/>
<feColorMatrix type="matrix" values="0 0 0 0 1 0 0 0 0 1 0 0 0 0 1 0 0 0 0.5 0"/>
<feBlend mode="normal" in2="effect1_innerShadow" result="effect2_innerShadow"/>
<feGaussianBlur stdDeviation="1.28627" result="effect3_foregroundBlur"/>
</filter>
<filter id="filter2_iif" x="-0.953023" y="-0.330769" width="47.5922" height="34.638" filterUnits="userSpaceOnUse" color-interpolation-filters="sRGB">
<feFlood flood-opacity="0" result="BackgroundImageFix"/>
<feBlend mode="normal" in="SourceGraphic" in2="BackgroundImageFix" result="shape"/>
<feColorMatrix in="SourceAlpha" type="matrix" values="0 0 0 0 0 0 0 0 0 0 0 0 0 0 0 0 0 0 127 0" result="hardAlpha"/>
<feOffset dx="2.57255" dy="2.57255"/>
<feGaussianBlur stdDeviation="10.2902"/>
<feComposite in2="hardAlpha" operator="arithmetic" k2="-1" k3="1"/>
<feColorMatrix type="matrix" values="0 0 0 0 1 0 0 0 0 0.72 0 0 0 0 3.33786e-08 0 0 0 0.2 0"/>
<feBlend mode="normal" in2="shape" result="effect1_innerShadow"/>
<feColorMatrix in="SourceAlpha" type="matrix" values="0 0 0 0 0 0 0 0 0 0 0 0 0 0 0 0 0 0 127 0" result="hardAlpha"/>
<feOffset dx="-2.57255"/>
<feGaussianBlur stdDeviation="0.643137"/>
<feComposite in2="hardAlpha" operator="arithmetic" k2="-1" k3="1"/>
<feColorMatrix type="matrix" values="0 0 0 0 1 0 0 0 0 1 0 0 0 0 1 0 0 0 0.9 0"/>
<feBlend mode="normal" in2="effect1_innerShadow" result="effect2_innerShadow"/>
<feGaussianBlur stdDeviation="0.643137" result="effect3_foregroundBlur"/>
</filter>
<radialGradient id="paint0_radial" cx="0" cy="0" r="1" gradientUnits="userSpaceOnUse" gradientTransform="translate(2.26266 23.4196) rotate(68.6417) scale(54.5546 31.9803)">
<stop stop-color="#FFFFFE"/>
<stop offset="1" stop-color="#FFF6E4"/>
</radialGradient>
<radialGradient id="paint1_radial" cx="0" cy="0" r="1" gradientUnits="userSpaceOnUse" gradientTransform="translate(32.4901 8.62746) rotate(90) scale(90.6824 26.5793)">
<stop stop-color="#FFEAB4"/>
<stop offset="1" stop-color="#FFE7B4"/>
</radialGradient>
<radialGradient id="paint2_radial" cx="0" cy="0" r="1" gradientUnits="userSpaceOnUse" gradientTransform="translate(39.5643 23.9987) rotate(-168.354) scale(53.8454 1174.06)">
<stop offset="0.0364583" stop-color="#FFFAED"/>
<stop offset="1" stop-color="#FFEDC9"/>
</radialGradient>
</defs>
</svg>
